<?xml version="1.0" standalone="no"?>
<!DOCTYPE svg PUBLIC "-//W3C//DTD SVG 20010904//EN"
 "http://www.w3.org/TR/2001/REC-SVG-20010904/DTD/svg10.dtd">
<svg version="1.0" xmlns="http://www.w3.org/2000/svg"
 width="16.000000pt" height="16.000000pt" viewBox="0 0 16.000000 16.000000"
 preserveAspectRatio="xMidYMid meet">

<g transform="translate(0.000000,16.000000) scale(0.100000,-0.100000)"
fill="#000000" stroke="none">
<path d="M68 153 c6 -2 18 -2 25 0 6 3 1 5 -13 5 -14 0 -19 -2 -12 -5z"/>
<path d="M25 130 c-4 -6 17 -10 55 -10 38 0 59 4 55 10 -3 6 -28 10 -55 10
-27 0 -52 -4 -55 -10z"/>
<path d="M30 93 c0 -10 3 -35 6 -55 6 -36 9 -38 44 -38 34 0 38 3 44 31 14 73
11 79 -44 79 -41 0 -50 -3 -50 -17z m27 -65 c-2 -13 -4 -3 -4 22 0 25 2 35 4
23 2 -13 2 -33 0 -45z m50 0 c-2 -13 -4 -3 -4 22 0 25 2 35 4 23 2 -13 2 -33
0 -45z"/>
</g>
</svg>
